<?xml version="1.0" standalone="no"?>
<!DOCTYPE svg PUBLIC "-//W3C//DTD SVG 20010904//EN"
 "http://www.w3.org/TR/2001/REC-SVG-20010904/DTD/svg10.dtd">
<svg version="1.0" xmlns="http://www.w3.org/2000/svg"
 width="480.000000pt" height="480.000000pt" viewBox="0 0 480.000000 480.000000"
 preserveAspectRatio="xMidYMid meet">
<metadata>
Created by potrace 1.11, written by Peter Selinger 2001-2013
</metadata>
<g transform="translate(0.000000,480.000000) scale(0.100000,-0.100000)"
fill="#000000" stroke="none">
<path d="M2370 4765 c0 -39 -14 -46 -31 -14 -8 15 -14 18 -22 10 -15 -15 -30
-14 -24 2 4 10 -2 13 -19 9 -40 -7 -37 -20 6 -27 22 -4 42 -10 45 -14 2 -5 -7
-6 -20 -3 -14 2 -25 0 -25 -5 0 -5 -14 -7 -31 -5 -22 3 -34 0 -41 -12 -10 -18
-49 -21 -65 -5 -18 18 -45 2 -41 -23 3 -20 -1 -22 -54 -23 -31 0 -60 -3 -64
-8 -4 -4 -2 -7 4 -7 19 0 14 -20 -5 -20 -15 -1 -14 -4 5 -20 30 -25 22 -38
-20 -33 -30 4 -31 3 -16 -10 22 -18 12 -30 -14 -16 -10 5 -23 7 -28 4 -5 -3
-18 -1 -29 5 -13 7 -22 7 -26 0 -6 -9 -38 -8 -95 5 -14 3 -19 3 -12 -1 17 -8
15 -27 -3 -20 -8 3 -25 2 -37 -3 l-23 -8 23 -7 c12 -4 20 -12 17 -17 -4 -5
-14 -5 -25 1 -30 16 -33 12 -11 -16 26 -33 26 -44 2 -44 -11 0 -23 -4 -26 -10
-3 -5 -17 -10 -30 -10 -26 0 -36 -18 -28 -51 8 -30 -20 -51 -54 -38 -13 5 -38
9 -54 9 -16 0 -38 5 -48 12 -22 14 -53 4 -46 -15 4 -10 -8 -13 -50 -13 -30 1
-55 4 -55 9 0 4 -8 4 -17 -1 -10 -5 -24 -7 -31 -5 -9 4 -11 -2 -7 -20 6 -23 3
-25 -39 -31 -25 -4 -50 -5 -56 -1 -5 3 -17 1 -27 -4 -29 -15 -57 -24 -68 -22
-5 2 -22 4 -38 5 -23 2 -26 -1 -21 -18 4 -12 13 -28 20 -37 21 -24 18 -41 -7
-34 -19 6 -20 4 -14 -25 7 -30 5 -32 -15 -25 -20 6 -22 4 -17 -14 3 -14 -1
-22 -15 -26 -13 -5 -16 -11 -10 -18 5 -7 12 -20 15 -30 8 -22 -25 -37 -103
-46 -39 -4 -55 -10 -56 -21 -1 -8 -2 -17 -3 -20 -14 -31 -8 -40 29 -40 33 0
40 -4 52 -30 7 -17 23 -33 36 -37 19 -4 20 -8 10 -20 -10 -12 -9 -14 3 -13 27
4 39 0 37 -12 -2 -6 4 -13 12 -14 8 -2 38 -6 65 -10 28 -3 43 -9 35 -12 -35
-12 -40 -47 -6 -38 16 4 26 1 30 -9 7 -19 46 -19 73 0 20 14 22 14 29 -7 4
-12 2 -24 -3 -25 -13 -5 -4 -53 9 -53 6 0 7 -7 4 -16 -4 -11 1 -18 14 -21 11
-3 20 -12 20 -21 0 -12 4 -12 21 4 21 19 21 19 18 -1 -2 -11 -13 -24 -24 -30
-34 -17 -31 -61 5 -94 26 -23 31 -33 25 -52 -5 -13 -8 -62 -7 -109 1 -110 -2
-120 -38 -120 -23 0 -28 -4 -23 -16 3 -9 1 -19 -6 -23 -6 -4 -13 -17 -15 -28
-5 -25 30 -39 51 -21 10 8 13 6 13 -11 0 -11 5 -21 11 -21 6 0 9 -9 6 -20 -3
-11 -1 -20 3 -20 5 0 8 -18 7 -40 -1 -43 8 -59 24 -43 14 14 31 80 30 115 -1
15 3 30 9 33 6 4 8 11 5 16 -10 15 5 48 24 54 10 3 21 18 24 34 3 16 13 36 22
44 8 9 15 19 15 24 0 5 10 13 22 18 13 6 28 21 35 35 18 38 85 88 129 96 21 3
44 10 49 14 6 4 26 10 45 14 19 4 60 11 90 17 30 6 75 12 98 14 24 2 50 10 59
16 8 7 33 12 55 10 22 -1 47 4 55 10 10 9 49 12 119 11 75 -1 107 2 116 12 9
10 17 10 30 3 13 -9 21 -7 35 6 12 10 27 14 41 10 12 -3 22 -1 22 5 0 17 42
22 63 7 16 -11 25 -12 41 -2 12 6 26 12 31 13 6 0 12 2 15 3 8 4 31 9 75 16
48 8 57 13 50 26 -4 5 1 9 9 9 19 0 31 -40 21 -70 -6 -20 -5 -20 15 -8 18 10
24 10 27 1 3 -7 15 -13 27 -13 12 0 28 6 35 13 11 10 12 8 7 -10 -6 -19 -2
-23 21 -29 15 -3 43 -10 62 -14 18 -5 46 -6 62 -3 17 3 35 0 44 -7 8 -6 31
-12 52 -13 21 0 44 -7 51 -14 7 -7 24 -13 36 -13 28 0 48 -22 44 -46 -2 -11 5
-20 19 -23 26 -7 63 -69 63 -105 0 -14 -6 -31 -13 -38 -9 -9 -12 -38 -12 -88
1 -41 -2 -80 -7 -87 -6 -7 -5 -20 1 -32 6 -11 11 -29 11 -41 0 -17 4 -20 20
-15 14 5 20 2 20 -10 0 -8 7 -18 15 -21 10 -4 13 -13 10 -25 -4 -11 -2 -19 4
-19 6 0 11 -7 11 -15 0 -9 11 -27 24 -40 13 -13 34 -38 46 -55 19 -26 20 -34
9 -41 -11 -7 -11 -9 3 -9 22 0 37 -27 30 -53 -4 -15 -1 -18 14 -13 18 5 21 -3
34 -77 7 -45 15 -107 17 -137 2 -30 5 -67 6 -82 2 -28 27 -41 27 -14 0 7 6 19
14 26 8 6 16 24 18 38 2 19 8 26 21 24 10 -2 17 3 17 13 0 8 7 15 15 15 10 0
17 14 21 40 8 49 13 53 48 34 16 -7 35 -14 42 -14 12 0 12 -5 -1 -30 -29 -56
-12 -79 29 -41 12 11 50 30 86 44 42 16 65 30 65 40 0 8 4 19 8 23 4 4 7 14 7
22 0 8 6 28 13 45 14 32 24 58 57 150 9 26 20 50 22 53 3 3 4 23 1 44 -4 30
-1 43 16 61 11 13 21 25 21 29 0 6 54 40 64 40 3 0 6 -7 6 -15 0 -22 27 -18
33 4 3 14 -1 21 -16 23 -18 3 -17 6 13 36 19 17 39 32 46 32 7 0 22 -20 34
-44 11 -24 27 -49 35 -56 13 -11 50 -82 79 -153 8 -21 18 -81 21 -135 6 -106
10 -96 -68 -200 -20 -27 -44 -53 -53 -56 -8 -3 -13 -10 -10 -15 3 -5 -6 -21
-20 -36 -43 -46 -71 -98 -79 -145 -8 -47 -104 -243 -168 -343 -20 -32 -55 -77
-76 -100 -22 -24 -46 -62 -54 -85 -20 -58 -65 -108 -105 -116 -33 -7 -34 -9
-27 -44 3 -20 21 -55 38 -77 17 -22 35 -44 39 -50 4 -5 21 -26 38 -46 39 -47
41 -110 5 -187 -29 -62 -83 -132 -102 -132 -8 0 -11 -5 -8 -10 3 -6 -1 -10 -9
-10 -9 0 -16 -7 -16 -16 0 -9 -8 -14 -17 -13 -10 1 -25 1 -33 0 -12 -1 -13 -3
-1 -10 9 -6 10 -11 2 -15 -6 -4 -11 -5 -11 -1 0 3 -14 -10 -30 -29 -34 -38
-82 -55 -105 -36 -8 6 -22 10 -32 9 -10 -2 -27 0 -38 4 -19 6 -53 0 -97 -18
-13 -5 -18 -2 -18 9 0 9 -8 16 -20 16 -26 0 -26 27 0 35 22 7 26 21 9 27 -15
5 11 48 28 48 7 0 13 7 13 15 0 8 -7 15 -15 15 -8 0 -15 7 -15 16 0 12 -3 14
-13 6 -8 -7 -18 -7 -27 -2 -22 14 -40 12 -40 -5 0 -9 -6 -12 -15 -9 -9 4 -43
-16 -87 -52 -125 -103 -277 -212 -399 -289 -9 -5 -29 -19 -44 -30 -15 -10 -40
-20 -54 -21 -52 -3 -57 -5 -36 -13 17 -7 17 -8 -8 -13 -15 -3 -27 -1 -27 3 0
14 -28 11 -33 -3 -4 -10 -7 -10 -18 0 -7 6 -23 12 -35 12 -13 0 -26 4 -29 10
-3 5 -13 10 -22 10 -12 0 -13 -3 -3 -15 12 -15 5 -55 -11 -55 -5 0 -9 4 -9 8
0 5 -23 8 -50 8 -33 -1 -54 4 -59 13 -6 9 -11 10 -15 2 -5 -8 -13 -8 -28 0
-15 8 -19 8 -14 0 4 -6 2 -11 -5 -11 -8 0 -7 -5 2 -17 10 -12 11 -15 1 -9 -7
4 -19 2 -27 -4 -12 -10 -15 -9 -15 5 0 14 -3 15 -15 5 -12 -10 -15 -9 -15 5 0
14 -3 15 -14 6 -10 -9 -16 -8 -26 4 -7 8 -16 12 -22 9 -5 -3 -16 0 -25 7 -13
11 -17 10 -28 -4 -11 -16 -14 -12 -20 32 -5 35 -11 48 -20 45 -9 -4 -11 2 -8
20 3 16 1 26 -6 26 -6 0 -11 -6 -11 -14 0 -7 -7 -19 -15 -26 -13 -11 -15 -8
-15 16 -1 25 -2 26 -11 12 -13 -24 -39 -23 -39 1 0 30 -20 36 -36 12 -17 -24
-34 -20 -34 8 0 17 -68 61 -96 61 -13 0 -19 29 -14 75 3 32 20 43 26 17 5 -17
14 -22 39 -22 42 0 65 -9 65 -25 0 -7 6 -15 14 -18 15 -6 29 6 39 36 4 10 11
16 16 12 17 -10 20 11 9 47 -8 27 -20 40 -48 53 -30 14 -36 21 -32 40 3 18 -1
24 -19 27 l-24 5 25 11 c14 6 21 11 15 12 -5 0 -4 4 3 9 9 5 -2 15 -35 32 -93
47 -83 64 38 65 52 1 149 3 216 5 88 2 126 -1 137 -10 10 -9 28 -11 50 -7 31
6 39 2 72 -29 20 -20 42 -34 49 -31 21 8 26 76 7 108 -9 15 -21 28 -26 28 -5
0 -22 14 -37 31 -15 17 -30 26 -33 20 -9 -15 -36 -2 -36 18 0 13 -2 13 -9 2
-7 -10 -12 -8 -24 9 -13 18 -18 20 -35 9 -23 -14 -33 -60 -19 -84 8 -14 0 -16
-68 -14 -42 1 -104 8 -138 16 -36 9 -84 13 -116 10 -33 -4 -76 0 -110 9 -31 8
-75 15 -98 16 -38 0 -42 3 -38 22 2 11 4 27 4 34 1 6 8 12 16 12 8 0 15 4 15
10 0 5 14 16 30 25 17 9 30 22 30 29 0 8 7 16 15 20 8 3 15 10 15 16 0 6 -4 9
-8 6 -4 -2 -14 -1 -21 4 -12 7 13 17 64 25 6 1 12 3 15 5 12 6 120 5 120 -1 0
-4 13 6 29 22 17 17 40 29 55 29 32 0 45 -20 14 -21 -14 -1 -8 -5 17 -11 22
-5 56 -6 75 -3 37 7 90 40 90 56 0 6 -13 1 -29 -10 -37 -27 -64 -26 -119 0
-45 22 -76 22 -219 3 -34 -5 -55 0 -103 22 -33 16 -60 35 -60 43 0 8 -6 11
-16 7 -9 -4 -23 -1 -30 5 -30 25 -2 -33 32 -67 40 -39 39 -113 -2 -97 -8 3
-14 -1 -14 -8 0 -8 -8 -23 -17 -34 -12 -16 -14 -16 -10 -3 10 28 -8 29 -47 3
-20 -14 -45 -25 -56 -25 -10 0 -22 -5 -25 -11 -5 -7 -15 -3 -30 11 -13 12 -29
19 -35 15 -8 -5 -11 1 -8 16 2 15 -2 23 -9 22 -7 -2 -22 17 -33 42 -14 31 -27
45 -40 45 -22 0 -26 20 -8 38 8 8 -2 10 -44 8 -30 -1 -60 -6 -67 -10 -14 -9
-31 9 -31 33 0 10 10 12 46 6 75 -11 99 26 74 115 -14 52 -22 90 -27 133 -3
23 -12 41 -22 44 -9 3 -23 11 -31 18 -8 7 -29 15 -46 18 -28 5 -31 4 -27 -13
4 -14 0 -20 -11 -20 -25 0 -20 -39 7 -49 28 -11 97 -76 97 -92 0 -8 -4 -8 -15
1 -10 9 -15 9 -15 1 0 -15 -21 -14 -61 4 l-34 15 30 -2 c17 -2 31 2 33 7 1 6
-1 10 -5 10 -12 1 -68 56 -66 65 1 4 -23 17 -53 29 -29 13 -54 27 -54 32 0 5
-15 9 -33 9 -18 0 -43 7 -56 16 -16 11 -26 13 -33 6 -6 -6 -17 -8 -24 -5 -8 3
-14 1 -14 -5 0 -6 6 -12 13 -15 6 -2 9 -8 5 -12 -4 -4 -27 14 -52 39 -45 45
-47 45 -65 27 -11 -11 -17 -22 -14 -24 2 -3 -5 -8 -16 -12 -12 -3 -21 -12 -21
-19 0 -7 -30 -44 -67 -82 -37 -38 -64 -63 -59 -56 4 7 -1 24 -13 41 -27 38
-26 51 4 51 14 0 25 5 25 10 0 6 -4 10 -10 10 -22 0 -12 22 31 69 9 10 25 32
35 50 10 17 22 31 27 31 4 0 5 5 2 10 -3 5 -18 10 -33 10 -15 0 -52 11 -82 23
-71 30 -260 147 -325 201 -72 61 -73 61 -101 29 -13 -15 -24 -31 -24 -35 0 -4
-9 -10 -21 -13 -13 -4 -18 -12 -15 -21 4 -10 -5 -21 -24 -32 -19 -11 -28 -22
-24 -32 3 -8 2 -11 -2 -8 -3 4 -13 1 -20 -7 -20 -19 -21 -590 -1 -578 15 9 47
6 105 -9 40 -10 43 -13 40 -41 -2 -19 2 -32 11 -35 8 -3 11 0 7 6 -10 17 11
23 24 7 10 -12 9 -16 -3 -21 -9 -3 -18 -12 -21 -20 -4 -11 -2 -11 13 -2 10 6
26 8 36 4 14 -5 15 -9 5 -21 -8 -9 -21 -13 -31 -10 -14 5 -19 1 -19 -14 0 -12
-4 -21 -10 -21 -5 0 -10 -5 -10 -11 0 -6 -9 -22 -20 -36 -26 -33 -25 -49 2
-56 18 -5 19 -8 8 -21 -8 -11 -9 -16 -1 -16 6 0 11 -6 11 -13 0 -16 33 -15 53
1 11 10 17 9 28 -5 9 -11 10 -14 2 -9 -9 5 -13 0 -13 -14 0 -17 -4 -19 -27
-14 -16 4 -30 7 -33 6 -30 0 -32 -3 -12 -21 12 -10 22 -23 22 -29 0 -7 12 -6
34 3 25 11 37 12 42 4 3 -6 1 -15 -7 -20 -19 -11 17 -49 47 -49 17 0 25 -7 30
-24 7 -29 41 -40 60 -21 17 17 18 42 2 48 -10 4 -10 6 0 6 6 1 12 7 12 15 0
18 26 27 56 20 22 -6 28 -14 22 -30 -2 -3 5 -10 15 -15 9 -6 15 -14 12 -20 -4
-5 3 -9 14 -9 12 0 21 -5 21 -11 0 -16 24 -36 38 -31 7 2 12 -5 12 -17 0 -12
6 -21 15 -21 9 0 18 -7 22 -15 6 -18 -23 -44 -51 -45 -13 0 -17 -5 -13 -20 3
-10 -1 -24 -8 -30 -8 -6 -11 -18 -8 -26 7 -18 -17 -18 -42 -1 -15 12 -22 12
-45 0 -16 -7 -33 -20 -40 -28 -13 -16 -30 -11 -30 8 0 7 4 6 10 -3 6 -9 10
-10 10 -3 0 6 3 20 6 30 6 15 4 16 -7 6 -7 -7 -21 -13 -31 -13 -10 0 -18 -4
-18 -10 0 -5 -7 -10 -16 -10 -8 0 -12 5 -9 10 3 6 1 10 -5 10 -6 0 -13 -7 -16
-15 -9 -22 -21 -18 -29 8 -8 22 -8 22 -12 -3 -7 -40 -23 -48 -23 -13 0 43 -10
69 -21 52 -6 -10 -11 -10 -23 0 -12 10 -19 11 -30 2 -21 -18 -39 12 -34 58 2
22 0 37 -4 35 -5 -3 -8 -23 -8 -45 0 -35 -3 -39 -25 -39 -15 0 -25 6 -25 15 0
9 -6 12 -15 9 -8 -4 -15 -15 -15 -25 0 -21 -20 -25 -38 -7 -9 9 -12 -11 -12
-90 0 -93 2 -102 19 -102 23 0 45 -25 36 -41 -4 -6 -18 -9 -31 -6 -21 4 -24 0
-24 -25 l0 -28 41 20 40 21 -23 -31 c-15 -20 -29 -30 -40 -27 -10 3 -18 1 -18
-4 0 -9 28 -14 62 -11 10 1 18 -4 18 -12 0 -23 28 -27 43 -6 13 19 14 19 31
-1 12 -14 25 -19 39 -15 12 3 35 -4 56 -17 33 -20 34 -22 14 -25 -13 -2 -23
-7 -23 -11 0 -5 11 -6 25 -3 14 2 25 8 25 13 0 12 33 12 46 0 5 -4 23 -11 41
-14 26 -5 31 -3 26 8 -3 8 -9 15 -14 15 -6 0 -4 6 3 14 14 15 32 11 23 -5 -4
-5 -1 -9 4 -9 6 0 11 4 11 10 0 22 130 134 176 152 59 22 201 24 284 4 81 -20
182 -69 225 -109 32 -31 38 -42 38 -79 0 -24 -8 -60 -17 -82 -9 -21 -16 -46
-16 -56 0 -9 -9 -29 -20 -43 -11 -14 -20 -33 -20 -44 0 -10 -9 -31 -20 -48
-11 -16 -20 -37 -20 -46 0 -9 -7 -22 -15 -29 -9 -7 -14 -19 -11 -26 3 -8 -4
-20 -14 -27 -15 -10 -22 -31 -26 -76 l-7 -62 119 3 c89 2 118 6 117 16 -2 6 2
12 7 12 6 0 10 6 10 14 0 8 4 18 10 21 7 4 7 -3 0 -20 -14 -37 -13 -45 8 -45
12 0 22 16 35 58 11 31 24 72 31 90 l13 34 26 -31 c24 -29 81 -80 143 -128
l28 -23 1643 0 1643 0 0 383 0 384 -25 11 c-14 7 -33 12 -42 12 -14 0 -14 2 3
14 19 14 19 15 -4 34 -13 11 -19 23 -14 26 5 3 22 -8 37 -24 16 -17 32 -30 37
-30 4 0 8 32 8 70 0 58 -4 74 -22 92 -16 16 -25 18 -37 11 -20 -13 -29 -48
-10 -40 45 18 54 20 44 9 -6 -6 -22 -13 -35 -14 -29 -3 -54 -33 -46 -53 7 -19
-5 -19 -30 -1 -19 14 -18 15 7 43 15 15 30 45 33 65 6 31 3 39 -16 52 -12 9
-26 16 -30 16 -4 0 -9 -30 -11 -67 l-3 -68 -2 72 -2 72 -62 29 c-85 41 -98 44
-114 31 -16 -13 -18 -29 -4 -29 6 0 10 8 10 17 0 15 3 14 22 -4 28 -28 19 -36
-37 -35 -38 0 -45 -3 -45 -19 0 -13 -5 -17 -16 -12 -14 5 -14 3 -2 -16 7 -12
22 -24 33 -27 23 -6 53 -44 34 -44 -6 0 -25 10 -42 22 -18 13 -33 22 -34 20
-10 -9 -25 2 -33 24 -6 14 -14 23 -19 20 -5 -3 -11 1 -15 9 -3 8 -13 15 -23
15 -17 1 -57 33 -97 78 -33 38 2 24 48 -18 24 -22 50 -40 59 -40 8 0 17 -7 21
-15 7 -19 40 -19 56 0 14 17 10 25 -13 29 -18 2 -47 25 -47 37 0 4 7 15 16 24
22 22 10 31 -22 16 -37 -17 -54 1 -29 29 16 18 17 20 2 14 -13 -4 -17 -1 -17
14 0 11 5 22 12 24 13 5 4 38 -11 38 -5 0 -11 -9 -14 -20 -5 -21 -41 -28 -52
-9 -9 14 -55 -29 -55 -51 0 -9 5 -21 12 -28 9 -9 9 -15 0 -24 -6 -6 -13 -10
-14 -7 -34 55 -38 72 -23 102 8 16 14 46 14 66 -1 23 -3 28 -6 14 -2 -13 -9
-23 -15 -23 -6 0 -8 -9 -5 -21 3 -11 2 -19 -1 -17 -4 2 -19 10 -34 17 -16 8
-28 22 -28 31 0 10 -7 23 -15 30 -16 13 -21 40 -7 40 4 0 14 -6 21 -12 10 -10
10 -8 0 10 -13 21 -12 25 9 42 12 10 22 23 22 29 0 20 342 348 380 365 11 5
23 21 27 35 11 43 129 177 244 276 13 12 34 33 47 48 l22 27 0 408 0 409 -54
-5 c-33 -3 -56 0 -60 7 -4 6 -24 11 -45 11 -42 0 -75 27 -66 53 4 8 -1 21 -10
28 -47 39 -65 60 -65 78 0 11 -9 23 -21 26 -16 5 -20 13 -16 31 2 13 -1 25 -7
27 -8 3 -7 8 2 18 6 7 12 21 12 31 0 14 -5 17 -24 12 -20 -5 -24 -1 -30 28 -4
18 -8 50 -9 70 -2 34 -5 38 -29 38 -41 0 -58 10 -58 34 0 12 -5 27 -11 33 -9
9 -5 23 15 57 15 26 25 50 22 55 -3 5 1 12 9 15 11 4 14 13 9 30 -4 17 1 31
16 48 34 37 45 51 69 86 17 24 30 32 52 32 16 0 29 5 29 10 0 6 7 10 15 10 8
0 15 -4 15 -10 0 -18 20 -11 21 8 0 11 5 7 13 -12 l13 -29 16 23 c20 28 29 22
85 -54 20 -28 49 -63 64 -78 l28 -27 0 225 c0 141 -4 233 -11 245 -7 15 -7 24
1 34 8 10 4 18 -17 33 -27 20 -27 21 -9 35 18 13 17 15 -17 21 -44 8 -52 35
-9 30 17 -3 12 1 -13 9 -31 10 -41 18 -43 37 -3 34 48 124 73 128 40 8 45 21
45 124 0 87 -2 99 -16 94 -9 -3 -18 -6 -20 -6 -2 0 -4 -7 -4 -15 0 -8 -7 -15
-15 -15 -8 0 -20 -9 -27 -20 -15 -23 -43 -27 -34 -5 7 18 4 18 -29 3 -14 -6
-25 -15 -25 -20 0 -5 -4 -6 -10 -3 -6 3 -10 2 -10 -4 0 -5 8 -14 17 -20 14 -7
15 -12 5 -24 -20 -24 -75 -44 -80 -29 -2 7 -8 10 -13 6 -5 -3 -19 -7 -30 -9
-12 -3 -30 -12 -41 -22 -27 -24 -52 -6 -56 42 -2 27 -9 39 -23 42 -15 4 -18
13 -17 43 1 36 4 40 64 71 53 27 66 30 79 19 21 -18 19 -36 -9 -57 -13 -10
-26 -29 -30 -41 -6 -18 -3 -22 13 -22 14 0 21 6 21 20 0 24 37 60 62 60 21 0
40 32 32 54 -5 14 -57 16 -466 16 -364 0 -458 -3 -452 -12 6 -10 4 -10 -7 0
-7 6 -28 12 -47 12 -30 0 -33 -2 -27 -22 5 -18 4 -20 -4 -8 -9 12 -11 13 -11
1 0 -10 -7 -8 -23 7 -21 20 -34 22 -138 22 -63 0 -108 -4 -102 -8 9 -6 11 -24
6 -60 -7 -64 -31 -84 -63 -52 -11 11 -27 20 -35 20 -9 0 -18 7 -22 16 -5 13
-7 13 -14 2 -7 -10 -11 -7 -15 10 -4 13 -14 22 -23 21 -31 -3 -38 1 -49 26
l-11 24 -322 -2 c-247 -1 -323 -5 -327 -14 -2 -7 -14 -13 -27 -13 -13 0 -26
-6 -28 -12 -3 -7 -6 -1 -6 15 -1 40 -21 33 -21 -8z m119 -6 c-16 -10 -23 -4
-14 10 3 6 11 8 17 5 6 -4 5 -9 -3 -15z m1251 -14 c11 -13 10 -18 -5 -29 -13
-9 -15 -15 -7 -20 7 -4 17 -4 22 -1 16 10 12 -64 -4 -80 -7 -8 -17 -11 -20 -7
-4 3 -11 0 -17 -8 -8 -13 -10 -13 -18 -1 -6 10 -1 21 16 37 18 17 23 29 18 41
-10 22 -12 83 -4 83 4 0 12 -7 19 -15z m-1273 -10 c8 -9 13 -19 10 -22 -10
-10 -37 6 -37 22 0 19 7 19 27 0z m908 -97 c6 -4 2 -8 -7 -8 -10 0 -18 7 -18
17 0 9 3 12 8 7 4 -5 12 -12 17 -16z m63 -98 c-7 -11 -16 -20 -19 -20 -4 0 -9
9 -12 20 -4 16 0 20 19 20 22 0 23 -2 12 -20z m662 -10 c0 -5 -5 -10 -11 -10
-5 0 -7 -5 -4 -11 4 -6 12 -8 19 -6 16 7 49 -19 41 -32 -3 -6 -14 -11 -23 -11
-13 -1 -12 -5 8 -21 14 -12 24 -29 22 -40 -2 -11 2 -19 7 -19 6 0 11 12 11 26
0 20 4 25 16 20 8 -3 12 -2 9 3 -3 5 -1 12 5 16 5 3 15 -3 22 -15 7 -11 18
-20 25 -20 6 0 15 -4 18 -10 3 -6 -1 -7 -9 -4 -16 6 -21 -5 -17 -34 2 -9 -4
-12 -18 -7 -14 4 -21 0 -26 -15 -3 -11 -15 -20 -25 -20 -10 0 -27 -11 -37 -24
-11 -13 -30 -26 -44 -28 -16 -2 -25 -10 -27 -26 -2 -13 -9 -21 -15 -19 -12 4
-19 73 -18 187 0 64 3 77 21 89 11 7 20 20 20 27 0 8 7 14 15 14 8 0 15 -4 15
-10z m435 -160 c3 -5 1 -10 -4 -10 -6 0 -11 5 -11 10 0 6 2 10 4 10 3 0 8 -4
11 -10z m-229 -125 c-9 -7 -16 -17 -16 -23 0 -22 -24 -62 -37 -62 -21 0 -15
28 7 35 29 9 25 26 -6 21 -22 -4 -25 -2 -22 21 2 15 9 28 17 31 9 3 11 -2 7
-19 l-7 -24 18 21 c10 11 25 23 33 26 21 7 26 -13 6 -27z m-118 18 c-10 -2
-18 -9 -18 -14 0 -6 -5 -7 -10 -4 -16 10 -1 25 23 24 17 -1 18 -2 5 -6z m-25
-73 c-3 -11 -9 -20 -13 -20 -5 0 -6 9 -3 20 3 11 9 20 13 20 5 0 6 -9 3 -20z
m199 -17 c-6 -3 -9 -10 -6 -15 4 -6 2 -8 -4 -4 -6 3 -23 -5 -38 -19 -27 -25
-27 -25 -7 -43 17 -14 18 -19 7 -30 -17 -16 -64 -16 -65 1 0 6 -5 2 -11 -10
-6 -13 -19 -23 -28 -23 -10 0 -23 -7 -31 -16 -7 -8 -29 -24 -50 -34 -44 -23
-57 -14 -69 48 -4 20 -11 49 -15 65 -6 23 -4 27 13 27 11 0 27 7 36 15 22 22
26 19 26 -22 0 -29 3 -34 12 -25 7 7 19 12 28 12 9 0 16 9 17 21 2 27 6 31 27
23 9 -3 16 -17 16 -30 0 -33 27 -31 68 6 17 16 32 32 32 35 0 3 8 13 18 24 11
12 20 15 27 8 7 -6 6 -11 -3 -14z m-282 -8 c0 -18 -5 -25 -19 -25 -11 0 -23 5
-26 10 -11 18 3 40 25 40 15 0 20 -7 20 -25z m326 -42 c-11 -11 -17 4 -9 23 7
18 8 18 11 1 2 -10 1 -21 -2 -24z m-146 -139 c0 -8 -9 -14 -22 -14 l-22 0 22
-20 c31 -29 28 -44 -19 -90 -42 -41 -76 -54 -65 -24 4 11 -1 18 -14 21 -20 5
-43 63 -34 86 7 19 131 70 146 60 5 -2 8 -11 8 -19z m-3040 -264 c0 -5 -2 -10
-4 -10 -3 0 -8 5 -11 10 -3 6 -1 10 4 10 6 0 11 -4 11 -10z m2969 -518 c-3
-20 3 -32 16 -32 12 0 15 -9 13 -35 -2 -29 -6 -35 -25 -35 -13 0 -23 -5 -23
-11 0 -6 9 -9 20 -6 11 3 20 2 20 -2 0 -14 -100 -101 -115 -101 -16 0 -20 12
-8 23 3 4 8 21 10 39 2 17 9 39 17 47 26 31 27 40 6 36 -14 -3 -18 0 -13 8 4
7 7 22 8 34 0 12 8 32 18 43 14 16 21 18 37 10 11 -6 19 -14 19 -18z m-589
-822 c0 -5 -2 -10 -4 -10 -3 0 -8 5 -11 10 -3 6 -1 10 4 10 6 0 11 -4 11 -10z
m-2557 -495 c-3 -9 -8 -14 -10 -11 -3 3 -2 9 2 15 9 16 15 13 8 -4z m-477 -52
c3 -18 -32 -63 -49 -63 -12 0 -36 31 -37 47 0 6 10 23 22 36 20 22 25 24 42
11 11 -7 21 -21 22 -31z m152 24 c7 0 11 -7 10 -16 -4 -19 -68 -29 -68 -11 0
7 -7 10 -15 6 -13 -4 -14 -2 -5 14 8 16 17 19 38 13 15 -3 33 -6 40 -6z m-438
-227 c0 -5 -4 -10 -10 -10 -5 0 -10 5 -10 10 0 6 5 10 10 10 6 0 10 -4 10 -10z
m154 -15 c-4 -8 -10 -15 -14 -15 -5 0 -16 -7 -25 -16 -9 -9 -18 -14 -21 -12
-9 10 7 36 29 46 31 15 37 14 31 -3z m-179 -14 c3 -5 1 -12 -5 -16 -5 -3 -10
1 -10 9 0 18 6 21 15 7z m895 -25 c0 -28 -28 -43 -37 -19 -4 9 1 21 12 29 25
18 25 18 25 -10z m168 -16 c1 -8 -9 -20 -23 -27 -14 -6 -23 -7 -19 -2 3 5 -11
9 -30 9 -42 0 -56 17 -24 30 34 14 92 8 96 -10z m2540 -12 c39 -46 75 -98 97
-141 11 -21 44 -65 73 -97 29 -32 48 -61 42 -65 -16 -10 -113 96 -159 175 -24
41 -55 92 -68 112 -36 59 -28 67 15 16z m-2115 -8 c3 -11 1 -20 -4 -20 -5 0
-9 2 -9 4 0 2 -3 11 -6 20 -3 9 -2 16 4 16 5 0 12 -9 15 -20z m-548 -1 c10
-14 1 -21 -19 -13 -9 3 -13 10 -10 15 7 12 21 11 29 -2z m-873 -41 c-7 -7 -12
-8 -12 -2 0 14 12 26 19 19 2 -3 -1 -11 -7 -17z m818 2 c-11 -11 -20 -24 -20
-28 0 -10 -91 -44 -98 -37 -3 3 0 5 7 5 7 0 9 4 6 10 -3 5 1 23 10 40 14 27
20 30 65 30 l50 0 -20 -20z m-130 -80 c0 -5 -5 -10 -11 -10 -5 0 -7 5 -4 10 3
6 8 10 11 10 2 0 4 -4 4 -10z m510 -20 c0 -5 -4 -10 -10 -10 -5 0 -10 5 -10
10 0 6 5 10 10 10 6 0 10 -4 10 -10z m-1320 -47 c0 -5 -5 -15 -10 -23 -7 -11
-12 -12 -21 -3 -6 6 -8 16 -5 22 8 12 36 15 36 4z m90 -52 c0 -19 -35 -39 -47
-27 -4 3 -1 6 5 6 7 0 12 9 12 20 0 11 7 20 15 20 8 0 15 -9 15 -19z m47 -17
c-3 -3 -12 -4 -19 -1 -8 3 -5 6 6 6 11 1 17 -2 13 -5z m2070 -46 c-3 -7 -5 -2
-5 12 0 14 2 19 5 13 2 -7 2 -19 0 -25z m-2130 -34 c-3 -3 -12 -4 -19 -1 -8 3
-5 6 6 6 11 1 17 -2 13 -5z m341 -265 c-3 -8 -7 -3 -11 10 -4 17 -3 21 5 13 5
-5 8 -16 6 -23z m3882 17 c0 -3 -4 -8 -10 -11 -5 -3 -10 -1 -10 4 0 6 5 11 10
11 6 0 10 -2 10 -4z m-2743 -38 c-3 -8 -6 -5 -6 6 -1 11 2 17 5 13 3 -3 4 -12
1 -19z m-1277 -18 c0 -5 11 -10 25 -10 14 0 25 -5 25 -11 0 -6 -7 -8 -16 -5
-9 3 -27 9 -40 12 -13 3 -21 10 -18 15 7 12 24 11 24 -1z m1270 -20 c0 -5 -4
-10 -10 -10 -5 0 -10 5 -10 10 0 6 5 10 10 10 6 0 10 -4 10 -10z m-1230 -164
c0 -11 -19 -15 -25 -6 -3 5 1 10 9 10 9 0 16 -2 16 -4z m-20 -30 c0 -3 -4 -8
-10 -11 -5 -3 -10 -1 -10 4 0 6 5 11 10 11 6 0 10 -2 10 -4z m-405 -44 c-2 -3
-12 -1 -22 2 -15 6 -15 9 -3 16 13 8 35 -8 25 -18z m260 -72 c3 -5 -1 -10 -9
-10 -9 0 -16 5 -16 10 0 6 4 10 9 10 6 0 13 -4 16 -10z"/>
<path d="M1083 1492 c-17 -2 -33 -9 -36 -15 -6 -15 60 -10 69 5 8 13 4 14 -33
10z"/>
<path d="M4704 4759 c-19 -22 -19 -22 1 -11 11 6 27 16 35 22 13 8 13 10 -1
10 -9 0 -24 -10 -35 -21z"/>
<path d="M120 4760 c0 -5 5 -10 11 -10 5 0 7 5 4 10 -3 6 -8 10 -11 10 -2 0
-4 -4 -4 -10z"/>
<path d="M4633 4726 c-32 -15 -29 -34 5 -28 38 7 57 23 40 33 -15 10 -16 10
-45 -5z"/>
<path d="M4435 4710 c-18 -8 -17 -9 8 -9 16 -1 26 3 22 9 -3 6 -7 10 -8 9 -1
0 -11 -4 -22 -9z"/>
<path d="M1924 4684 c-17 -14 -17 -15 -1 -10 10 3 25 6 33 6 9 0 12 5 9 10 -9
14 -18 13 -41 -6z"/>
<path d="M4400 4683 c0 -13 5 -23 10 -23 13 0 13 11 0 30 -8 12 -10 11 -10 -7z"/>
<path d="M0 4639 c0 -28 6 -46 18 -55 15 -12 15 -15 2 -23 -8 -6 -11 -14 -6
-18 4 -4 13 -1 19 8 7 8 20 18 30 22 9 3 17 12 17 19 0 16 -58 88 -71 88 -5 0
-9 -19 -9 -41z"/>
<path d="M1940 4659 c0 -5 5 -7 10 -4 6 3 10 8 10 11 0 2 -4 4 -10 4 -5 0 -10
-5 -10 -11z"/>
<path d="M1860 4591 c0 -5 7 -12 16 -15 14 -5 15 -4 4 9 -14 17 -20 19 -20 6z"/>
<path d="M401 4466 c-9 -11 -9 -15 1 -19 10 -4 10 -6 1 -6 -19 -1 -16 -21 2
-21 9 0 18 -7 21 -15 4 -8 11 -15 16 -15 6 0 8 6 5 14 -3 7 0 19 6 25 8 8 6
16 -8 31 -21 24 -29 25 -44 6z"/>
<path d="M4760 4441 c0 -5 6 -11 14 -14 8 -3 16 -16 19 -29 3 -18 5 -16 6 8 1
21 -5 34 -15 38 -21 8 -24 8 -24 -3z"/>
<path d="M4770 4280 c0 -5 7 -10 15 -10 8 0 15 5 15 10 0 6 -7 10 -15 10 -8 0
-15 -4 -15 -10z"/>
<path d="M565 4023 c-32 -59 -35 -68 -21 -81 14 -14 19 -11 55 29 51 55 58 75
35 100 -9 10 -20 19 -25 19 -4 0 -24 -30 -44 -67z"/>
<path d="M506 3929 c-7 -17 8 -68 16 -53 2 5 1 23 -2 39 -5 22 -9 26 -14 14z"/>
<path d="M4590 3835 c-6 -8 -10 -19 -8 -26 2 -6 9 0 16 15 13 29 10 33 -8 11z"/>
<path d="M4500 3786 c-6 -9 -10 -21 -8 -28 3 -8 9 -4 17 10 15 28 9 39 -9 18z"/>
<path d="M0 3591 l1 -186 25 -18 c34 -25 70 -19 67 11 -2 16 2 22 16 22 11 0
23 9 26 20 4 13 15 20 31 20 22 0 29 10 25 33 -1 5 6 36 15 69 16 55 16 61 1
69 -9 5 -23 16 -31 24 -8 8 -51 39 -95 69 l-81 54 0 -187z"/>
<path d="M4448 3654 c-5 -4 -8 -16 -8 -28 0 -14 3 -17 11 -9 6 6 9 19 7 28 -1
9 -6 13 -10 9z"/>
<path d="M1040 3620 c0 -5 5 -10 11 -10 5 0 7 5 4 10 -3 6 -8 10 -11 10 -2 0
-4 -4 -4 -10z"/>
<path d="M1166 3615 c4 -8 8 -15 10 -15 2 0 4 7 4 15 0 8 -4 15 -10 15 -5 0
-7 -7 -4 -15z"/>
<path d="M4791 3614 c0 -11 3 -14 6 -6 3 7 2 16 -1 19 -3 4 -6 -2 -5 -13z"/>
<path d="M1010 3598 c0 -29 16 -55 27 -44 4 5 2 11 -5 13 -8 3 -10 9 -3 16 6
8 4 17 -5 25 -12 11 -14 9 -14 -10z"/>
<path d="M4550 3613 c0 -7 -7 -10 -15 -6 -9 3 -25 -3 -36 -13 -12 -11 -23 -17
-26 -16 -3 2 -7 1 -10 -2 -4 -3 9 -6 28 -6 31 -1 32 -2 16 -14 -13 -10 -16
-21 -11 -40 7 -30 19 -33 33 -9 8 14 12 15 25 4 10 -8 16 -9 16 -3 0 17 41 26
51 11 6 -11 9 -10 14 3 8 21 -21 65 -48 74 -12 4 -25 12 -29 18 -6 8 -8 7 -8
-1z"/>
<path d="M4767 3595 c-7 -17 18 -41 28 -25 3 5 0 17 -8 25 -13 12 -16 12 -20
0z"/>
<path d="M4374 3564 c-18 -14 -18 -15 4 -4 12 6 22 13 22 15 0 8 -5 6 -26 -11z"/>
<path d="M236 3527 c-13 -9 -16 -20 -12 -35 7 -20 9 -20 22 -7 20 19 39 19 58
-1 22 -21 20 -34 -4 -34 -12 0 -28 -13 -40 -32 -24 -40 -25 -54 -4 -62 12 -5
14 -1 9 15 -5 14 0 27 14 40 30 28 48 23 42 -13 0 -4 8 -18 20 -30 11 -13 31
-36 44 -53 20 -24 26 -27 34 -16 5 8 7 20 4 28 -4 9 4 13 26 13 40 0 41 24 1
45 -21 11 -29 22 -27 37 1 15 -5 23 -21 27 -12 3 -28 17 -35 31 -21 42 -99 70
-131 47z"/>
<path d="M4475 3510 c-3 -5 -1 -10 4 -10 6 0 11 5 11 10 0 6 -2 10 -4 10 -3 0
-8 -4 -11 -10z"/>
<path d="M895 3480 c3 -5 8 -10 11 -10 2 0 4 5 4 10 0 6 -5 10 -11 10 -5 0 -7
-4 -4 -10z"/>
<path d="M4550 3480 c0 -5 -13 -16 -29 -24 -34 -18 -51 -50 -23 -44 9 2 16 10
15 16 -2 7 8 12 22 12 20 0 25 5 25 25 0 14 -2 25 -5 25 -3 0 -5 -4 -5 -10z"/>
<path d="M4641 3454 c-19 -18 -32 -36 -29 -39 5 -5 42 26 67 58 23 29 -2 17
-38 -19z"/>
<path d="M4745 3425 c-5 -11 -17 -33 -28 -49 -13 -19 -16 -27 -7 -24 23 7 52
54 48 74 -5 18 -5 18 -13 -1z"/>
<path d="M675 3370 c-3 -5 -2 -10 4 -10 5 0 13 5 16 10 3 6 2 10 -4 10 -5 0
-13 -4 -16 -10z"/>
<path d="M200 3320 c-13 -8 -13 -10 -1 -10 8 0 24 -8 35 -17 l21 -18 -20 25
c-11 14 -20 26 -20 27 0 1 -7 -2 -15 -7z"/>
<path d="M760 3320 c-8 -5 -12 -12 -9 -15 4 -3 12 1 19 10 14 17 11 19 -10 5z"/>
<path d="M947 3302 c-16 -17 -16 -20 -2 -26 16 -6 30 14 23 34 -2 7 -11 4 -21
-8z"/>
<path d="M461 3296 c-12 -14 17 -65 89 -154 37 -47 49 -51 57 -21 3 12 11 18
19 15 8 -3 14 -2 14 2 0 21 -141 172 -160 172 -4 0 -13 -6 -19 -14z"/>
<path d="M990 3296 c0 -23 16 -27 17 -5 1 10 -2 19 -8 19 -5 0 -9 -6 -9 -14z"/>
<path d="M1044 3287 c3 -10 6 -28 6 -40 0 -15 3 -18 11 -10 8 8 6 19 -6 39 -9
16 -14 21 -11 11z"/>
<path d="M270 3260 c0 -5 5 -10 11 -10 5 0 7 5 4 10 -3 6 -8 10 -11 10 -2 0
-4 -4 -4 -10z"/>
<path d="M978 3173 c-24 -6 -23 -19 1 -26 19 -5 41 9 41 25 0 8 -13 9 -42 1z"/>
<path d="M699 3063 c19 -24 38 -43 43 -43 17 0 6 16 -35 50 l-42 35 34 -42z"/>
<path d="M1133 3065 c-7 -8 -13 -21 -13 -30 0 -14 3 -14 30 0 19 10 27 20 24
30 -8 19 -25 19 -41 0z"/>
<path d="M1220 3023 c0 -13 -4 -23 -10 -23 -5 0 -10 -6 -10 -14 0 -9 9 -14 20
-13 22 1 27 31 10 57 -8 12 -10 11 -10 -7z"/>
<path d="M4205 2950 c-3 -11 -21 -29 -38 -42 -41 -28 -80 -69 -72 -76 3 -3 20
11 38 31 18 20 40 37 48 37 13 0 22 12 47 63 2 4 -1 7 -6 7 -6 0 -13 -9 -17
-20z"/>
<path d="M1256 2945 c4 -8 8 -15 10 -15 2 0 4 7 4 15 0 8 -4 15 -10 15 -5 0
-7 -7 -4 -15z"/>
<path d="M1291 2680 c-20 -64 -21 -74 -7 -89 19 -21 76 -169 76 -198 0 -20 5
-23 40 -23 22 0 40 -4 40 -10 0 -17 74 -45 120 -44 25 0 79 3 120 6 l75 5 -3
31 c-3 27 -1 30 20 25 13 -3 28 -10 33 -14 16 -12 38 29 40 73 1 21 -1 35 -6
33 -4 -3 -10 4 -14 15 -3 11 -13 20 -21 20 -8 0 -17 6 -20 14 -3 7 -23 22 -44
32 -22 11 -40 25 -40 32 0 6 -6 12 -14 12 -8 0 -26 15 -41 34 -40 51 -151 94
-246 97 -41 1 -77 6 -80 11 -4 6 -16 -22 -28 -62z m229 -122 c0 -4 7 -8 15 -8
8 0 19 -8 24 -18 9 -17 5 -19 -37 -20 -46 -2 -132 15 -132 26 0 3 8 10 17 17
19 14 113 16 113 3z m-170 -39 c0 -6 -4 -7 -10 -4 -5 3 -10 11 -10 16 0 6 5 7
10 4 6 -3 10 -11 10 -16z m210 -105 c0 -19 5 -44 11 -56 15 -27 8 -30 -36 -16
-27 9 -41 22 -51 46 -11 26 -11 32 0 32 8 0 19 7 26 15 7 8 21 15 31 15 15 0
19 -7 19 -36z"/>
<path d="M2355 2740 c-3 -5 -15 -10 -26 -10 -11 0 -22 -7 -25 -15 -4 -8 -18
-15 -33 -15 -19 0 -32 -8 -41 -25 -16 -30 -12 -35 31 -39 19 -2 43 -7 54 -12
11 -5 54 -7 95 -5 41 2 95 3 120 3 25 0 92 0 150 0 58 -1 116 -1 129 -1 12 -1
41 -15 62 -32 59 -46 37 -7 -37 68 -34 35 -69 63 -77 63 -8 0 -17 4 -19 10 -1
5 -19 11 -38 12 -28 2 -35 -1 -34 -14 1 -10 -4 -14 -12 -11 -8 3 -14 9 -14 13
0 5 -9 6 -19 3 -11 -3 -36 0 -56 7 -26 9 -39 9 -49 1 -10 -8 -22 -8 -40 -1
-35 13 -113 13 -121 0z"/>
<path d="M2237 2524 c-4 -4 -7 -11 -7 -16 0 -13 50 -6 53 7 2 12 -36 19 -46 9z"/>
<path d="M360 2471 c-14 -4 -25 -13 -25 -21 0 -10 9 -14 25 -12 24 3 24 2 6
-13 -11 -8 -16 -15 -10 -15 5 0 2 -4 -6 -10 -12 -7 -10 -11 10 -19 14 -6 54
-29 89 -51 65 -41 81 -47 81 -30 0 6 5 10 11 10 8 0 8 -4 -1 -15 -10 -12 -7
-19 17 -39 15 -14 40 -30 55 -35 24 -9 28 -6 43 24 8 19 20 37 25 40 18 11 11
23 -20 34 -18 6 -30 6 -30 0 0 -5 -5 -9 -11 -9 -5 0 -8 4 -5 8 8 13 -6 26 -74
72 -36 24 -78 54 -93 67 -29 24 -44 26 -87 14z m240 -145 c0 -3 -4 -8 -10 -11
-5 -3 -10 -1 -10 4 0 6 5 11 10 11 6 0 10 -2 10 -4z m48 -52 c0 -19 -3 -21
-14 -9 -8 7 -14 18 -14 23 0 5 6 9 14 9 7 0 14 -10 14 -23z"/>
<path d="M2211 2443 c-1 -24 4 -43 9 -43 12 0 12 24 0 60 -7 21 -8 19 -9 -17z"/>
<path d="M2345 2471 c-11 -5 -23 -7 -27 -5 -4 3 -9 0 -13 -6 -3 -5 -14 -10
-24 -10 -10 0 -24 -7 -32 -16 -10 -13 -10 -20 5 -45 12 -21 15 -39 10 -65 l-7
-37 33 5 c21 3 34 0 37 -9 3 -7 16 -13 29 -13 12 0 27 -7 31 -15 8 -13 11 -13
28 0 13 9 15 14 7 15 -19 0 -51 41 -52 66 0 14 11 25 38 36 76 32 79 31 84
-24 6 -58 35 -102 69 -104 13 -1 44 8 69 19 25 12 50 22 55 22 6 0 21 8 35 18
14 10 42 20 63 24 65 10 63 12 -73 76 -44 21 -144 42 -230 47 -3 1 6 7 20 15
23 13 19 14 -55 14 -44 0 -89 -4 -100 -8z m385 -121 c0 -13 -10 -24 -26 -31
-23 -8 -30 -6 -47 12 l-21 22 27 -5 c16 -3 31 0 38 8 16 20 29 17 29 -6z"/>
<path d="M4020 2416 c0 -13 49 -56 64 -56 17 0 2 31 -23 49 -34 25 -41 26 -41
7z"/>
<path d="M1575 2240 c-16 -6 -13 -8 13 -7 17 0 32 1 32 2 0 8 -28 11 -45 5z"/>
<path d="M2498 2243 c7 -3 16 -2 19 1 4 3 -2 6 -13 5 -11 0 -14 -3 -6 -6z"/>
<path d="M3733 2183 c-3 -10 -8 -21 -10 -25 -2 -4 11 -15 29 -24 18 -9 36 -21
39 -27 10 -15 29 2 29 26 0 28 -9 41 -37 56 -30 15 -43 14 -50 -6z"/>
<path d="M1242 2044 c9 -9 21 -13 27 -10 20 13 11 26 -16 26 -25 0 -26 -1 -11
-16z"/>
<path d="M921 2041 c-10 -7 -6 -11 18 -16 17 -3 33 -11 36 -16 4 -5 16 -9 28
-9 15 0 18 3 9 9 -7 4 -12 14 -10 22 4 17 -59 24 -81 10z"/>
<path d="M1034 1998 c-4 -6 -3 -8 3 -5 6 4 15 -5 21 -18 11 -24 31 -32 45 -19
7 8 -22 39 -45 47 -10 3 -20 1 -24 -5z"/>
<path d="M3645 1910 c-25 -28 -15 -33 24 -14 25 12 30 19 20 25 -20 12 -24 11
-44 -11z"/>
<path d="M4645 1569 c-9 -28 1 -36 14 -10 7 12 7 22 2 26 -5 3 -13 -4 -16 -16z"/>
<path d="M4236 1453 c-6 -14 -5 -15 5 -6 7 7 10 15 7 18 -3 3 -9 -2 -12 -12z"/>
<path d="M4115 1420 c16 -30 35 -40 35 -17 -1 17 -25 47 -39 47 -8 0 -7 -9 4
-30z"/>
<path d="M4442 1436 c7 -8 15 -12 17 -11 5 6 -10 25 -20 25 -5 0 -4 -6 3 -14z"/>
<path d="M22 1379 c2 -7 10 -15 17 -17 8 -3 12 1 9 9 -2 7 -10 15 -17 17 -8 3
-12 -1 -9 -9z"/>
<path d="M2180 1351 c0 -6 5 -13 10 -16 6 -3 10 1 10 9 0 9 -4 16 -10 16 -5 0
-10 -4 -10 -9z"/>
<path d="M65 1341 c-7 -12 12 -24 25 -16 11 7 4 25 -10 25 -5 0 -11 -4 -15 -9z"/>
<path d="M0 1303 c0 -43 32 -63 61 -37 19 17 19 17 -2 32 -11 8 -23 11 -26 8
-3 -3 -12 2 -19 12 -12 15 -13 14 -14 -15z"/>
<path d="M3731 1314 c0 -11 3 -14 6 -6 3 7 2 16 -1 19 -3 4 -6 -2 -5 -13z"/>
<path d="M120 1300 c0 -5 5 -10 11 -10 5 0 7 5 4 10 -3 6 -8 10 -11 10 -2 0
-4 -4 -4 -10z"/>
<path d="M2 1198 c-1 -46 0 -51 12 -36 7 10 17 14 22 9 5 -5 18 -11 29 -14 19
-4 19 -5 -1 -6 -17 -1 -21 -8 -22 -33 -1 -32 0 -32 14 -13 8 11 21 19 27 18 8
-2 12 10 11 33 -2 43 -18 64 -36 46 -17 -17 -29 -15 -22 3 4 8 1 15 -5 15 -6
0 -11 7 -11 15 0 8 -4 15 -8 15 -4 0 -9 -24 -10 -52z"/>
<path d="M154 1172 c-7 -36 -25 -44 -21 -11 1 12 -4 24 -10 26 -9 3 -12 -7
-11 -31 1 -21 6 -36 14 -36 7 0 10 -8 7 -21 -6 -20 -3 -21 23 -15 16 4 39 10
52 13 12 3 22 1 22 -5 0 -5 -16 -13 -35 -16 -19 -4 -35 -11 -35 -16 0 -6 4
-10 9 -10 5 0 4 -13 -2 -30 -12 -33 -1 -55 14 -27 14 24 34 21 47 -5 6 -13 11
-17 11 -10 2 22 25 13 53 -20 26 -31 27 -31 28 -10 0 12 5 22 11 22 13 0 6 25
-7 25 -28 2 -84 17 -84 23 1 24 14 52 26 52 23 0 16 18 -8 23 -20 4 -20 4 4 6
17 0 32 -7 41 -20 8 -11 18 -16 21 -11 9 15 -4 42 -20 42 -8 0 -14 5 -14 10 0
6 -11 10 -24 10 -14 0 -31 6 -38 13 -8 6 -26 23 -41 36 l-27 24 -6 -31z m46
-22 c0 -5 -4 -10 -10 -10 -5 0 -10 5 -10 10 0 6 5 10 10 10 6 0 10 -4 10 -10z
m-25 -30 c3 -5 1 -10 -4 -10 -6 0 -11 5 -11 10 0 6 2 10 4 10 3 0 8 -4 11 -10z"/>
<path d="M4564 1146 c-15 -12 -17 -17 -7 -27 10 -10 16 -9 28 7 26 35 15 46
-21 20z"/>
<path d="M478 1113 c7 -3 16 -2 19 1 4 3 -2 6 -13 5 -11 0 -14 -3 -6 -6z"/>
<path d="M101 1094 c0 -11 3 -14 6 -6 3 7 2 16 -1 19 -3 4 -6 -2 -5 -13z"/>
<path d="M515 1090 c3 -5 10 -10 16 -10 5 0 9 5 9 10 0 6 -7 10 -16 10 -8 0
-12 -4 -9 -10z"/>
<path d="M290 1045 c0 -8 4 -15 10 -15 5 0 7 7 4 15 -4 8 -8 15 -10 15 -2 0
-4 -7 -4 -15z"/>
<path d="M572 1024 c-7 -8 -8 -14 -3 -14 10 0 25 19 20 25 -2 1 -10 -3 -17
-11z"/>
<path d="M375 990 c3 -5 10 -10 16 -10 5 0 9 5 9 10 0 6 -7 10 -16 10 -8 0
-12 -4 -9 -10z"/>
<path d="M363 963 c4 -3 21 -7 38 -9 18 -2 30 -1 27 2 -3 3 -20 7 -38 9 -18 3
-30 2 -27 -2z"/>
<path d="M1920 840 c0 -5 5 -10 10 -10 6 0 10 5 10 10 0 6 -4 10 -10 10 -5 0
-10 -4 -10 -10z"/>
<path d="M0 569 c0 -28 5 -41 19 -49 43 -22 57 2 21 35 -20 18 -19 30 3 30 5
0 12 5 14 12 3 7 -7 11 -26 11 -29 -1 -31 -3 -31 -39z"/>
</g>
</svg>
